<svg width="16" height="16" viewBox="0 0 16 16" xmlns="http://www.w3.org/2000/svg">
    <defs>
        <linearGradient id="grad1" x1="0%" y1="0%" x2="100%" y2="100%">
            <stop offset="0%" style="stop-color:#00d4ff;stop-opacity:1" />
            <stop offset="100%" style="stop-color:#0099cc;stop-opacity:1" />
        </linearGradient>
    </defs>
    <circle cx="8" cy="8" r="7" fill="url(#grad1)" stroke="#ffffff" stroke-width="1"/>
    <g transform="translate(5, 4)">
        <path d="M3 1 L3 0 L4 0 L4 1 L5 2 L5 6 L4 7 L3 7 L2 6 L2 2 Z" fill="#000000"/>
        <path d="M2.5 7 L3 8 L3.5 7 L4 8 L4.5 7" fill="#ff4444"/>
        <circle cx="3.5" cy="3" r="0.8" fill="#ffffff"/>
        <path d="M2 4 L1 5 L1 6 L2 5 Z" fill="#000000"/>
        <path d="M5 4 L6 5 L6 6 L5 5 Z" fill="#000000"/>
    </g>
</svg>
