<svg width="48" height="48" viewBox="0 0 48 48" xmlns="http://www.w3.org/2000/svg">
    <defs>
        <linearGradient id="grad1" x1="0%" y1="0%" x2="100%" y2="100%">
            <stop offset="0%" style="stop-color:#00d4ff;stop-opacity:1" />
            <stop offset="100%" style="stop-color:#0099cc;stop-opacity:1" />
        </linearGradient>
    </defs>
    <circle cx="24" cy="24" r="23" fill="url(#grad1)" stroke="#ffffff" stroke-width="2"/>
    <g transform="translate(18, 12)">
        <path d="M6 2 L6 0 L8 0 L8 2 L10 4 L10 20 L8 22 L6 22 L4 20 L4 4 Z" fill="#000000"/>
        <path d="M5 22 L6 26 L7 22 L8 26 L9 22" fill="#ff4444"/>
        <circle cx="7" cy="10" r="2.5" fill="#ffffff"/>
        <path d="M4 14 L0 18 L0 22 L4 18 Z" fill="#000000"/>
        <path d="M10 14 L14 18 L14 22 L10 18 Z" fill="#000000"/>
    </g>
</svg>
