<svg width="32" height="32" viewBox="0 0 32 32" xmlns="http://www.w3.org/2000/svg">
    <defs>
        <linearGradient id="grad1" x1="0%" y1="0%" x2="100%" y2="100%">
            <stop offset="0%" style="stop-color:#00d4ff;stop-opacity:1" />
            <stop offset="100%" style="stop-color:#0099cc;stop-opacity:1" />
        </linearGradient>
    </defs>
    <circle cx="16" cy="16" r="15" fill="url(#grad1)" stroke="#ffffff" stroke-width="1"/>
    <g transform="translate(11, 8)">
        <path d="M5 1.5 L5 0 L6 0 L6 1.5 L7.5 3 L7.5 12 L6 13.5 L5 13.5 L3.5 12 L3.5 3 Z" fill="#000000"/>
        <path d="M3 13.5 L4 16 L5 13.5 L6 16 L7 13.5" fill="#ff4444"/>
        <circle cx="5.5" cy="6" r="1.5" fill="#ffffff"/>
        <path d="M3.5 8 L1 11 L1 13 L3.5 10 Z" fill="#000000"/>
        <path d="M7.5 8 L10 11 L10 13 L7.5 10 Z" fill="#000000"/>
    </g>
</svg>
